<mxfile host="Electron" modified="2024-01-08T14:15:12.133Z" agent="Mozilla/5.0 (Windows NT 10.0; Win64; x64) AppleWebKit/537.36 (KHTML, like Gecko) draw.io/22.1.16 Chrome/120.0.6099.109 Electron/28.1.0 Safari/537.36" etag="bRTNDu-6deEs4g3n4gDU" version="22.1.16" type="device">
  <diagram name="Страница — 1" id="x8XwpGseHy-KrAjlBG7h">
    <mxGraphModel dx="842" dy="568" grid="1" gridSize="10" guides="1" tooltips="1" connect="1" arrows="1" fold="1" page="1" pageScale="1" pageWidth="827" pageHeight="1169" math="0" shadow="0">
      <root>
        <mxCell id="0" />
        <mxCell id="1" parent="0" />
        <mxCell id="rRJigw9USVJfbrqrz50L-1" value="" style="rounded=1;whiteSpace=wrap;html=1;" parent="1" vertex="1">
          <mxGeometry x="110" y="330" width="670" height="310" as="geometry" />
        </mxCell>
        <mxCell id="rRJigw9USVJfbrqrz50L-2" value="" style="rounded=1;whiteSpace=wrap;html=1;" parent="1" vertex="1">
          <mxGeometry x="150" y="360" width="220" height="180" as="geometry" />
        </mxCell>
        <mxCell id="rRJigw9USVJfbrqrz50L-3" value="Создание проекта" style="html=1;align=center;verticalAlign=top;rounded=1;absoluteArcSize=1;arcSize=10;dashed=0;whiteSpace=wrap;" parent="1" vertex="1">
          <mxGeometry x="190" y="400" width="140" height="40" as="geometry" />
        </mxCell>
        <mxCell id="rRJigw9USVJfbrqrz50L-4" value="Редактирование проекта" style="html=1;align=center;verticalAlign=top;rounded=1;absoluteArcSize=1;arcSize=10;dashed=0;whiteSpace=wrap;" parent="1" vertex="1">
          <mxGeometry x="190" y="470" width="140" height="40" as="geometry" />
        </mxCell>
        <mxCell id="rRJigw9USVJfbrqrz50L-7" value="" style="endArrow=open;html=1;rounded=0;exitX=1;exitY=0.5;exitDx=0;exitDy=0;entryX=0;entryY=0.5;entryDx=0;entryDy=0;endFill=0;" parent="1" source="pMTD0tAEHfAGlln0ysVL-2" target="rRJigw9USVJfbrqrz50L-3" edge="1">
          <mxGeometry width="50" height="50" relative="1" as="geometry">
            <mxPoint x="160" y="420" as="sourcePoint" />
            <mxPoint x="520" y="460" as="targetPoint" />
          </mxGeometry>
        </mxCell>
        <mxCell id="rRJigw9USVJfbrqrz50L-8" value="" style="endArrow=open;html=1;rounded=0;exitX=1;exitY=0.5;exitDx=0;exitDy=0;entryX=0;entryY=0.5;entryDx=0;entryDy=0;endFill=0;" parent="1" source="pMTD0tAEHfAGlln0ysVL-3" target="rRJigw9USVJfbrqrz50L-4" edge="1">
          <mxGeometry width="50" height="50" relative="1" as="geometry">
            <mxPoint x="160" y="490" as="sourcePoint" />
            <mxPoint x="200" y="430" as="targetPoint" />
          </mxGeometry>
        </mxCell>
        <mxCell id="rRJigw9USVJfbrqrz50L-9" value="" style="shape=sumEllipse;perimeter=ellipsePerimeter;html=1;backgroundOutline=1;" parent="1" vertex="1">
          <mxGeometry x="100" y="565" width="20" height="20" as="geometry" />
        </mxCell>
        <mxCell id="rRJigw9USVJfbrqrz50L-10" value="" style="ellipse;" parent="1" vertex="1">
          <mxGeometry x="100" y="410" width="20" height="20" as="geometry" />
        </mxCell>
        <mxCell id="rRJigw9USVJfbrqrz50L-11" value="" style="ellipse;" parent="1" vertex="1">
          <mxGeometry x="100" y="480" width="20" height="20" as="geometry" />
        </mxCell>
        <mxCell id="rRJigw9USVJfbrqrz50L-12" value="Создать проект" style="text;html=1;strokeColor=none;fillColor=none;align=center;verticalAlign=middle;whiteSpace=wrap;rounded=0;" parent="1" vertex="1">
          <mxGeometry x="30" y="405" width="60" height="30" as="geometry" />
        </mxCell>
        <mxCell id="rRJigw9USVJfbrqrz50L-13" value="Редактировать проект" style="text;html=1;strokeColor=none;fillColor=none;align=center;verticalAlign=middle;whiteSpace=wrap;rounded=0;" parent="1" vertex="1">
          <mxGeometry x="30" y="470" width="60" height="30" as="geometry" />
        </mxCell>
        <mxCell id="rRJigw9USVJfbrqrz50L-14" value="" style="endArrow=open;html=1;rounded=0;exitX=1;exitY=0.5;exitDx=0;exitDy=0;entryX=0;entryY=0.5;entryDx=0;entryDy=0;endFill=0;" parent="1" source="rRJigw9USVJfbrqrz50L-11" target="pMTD0tAEHfAGlln0ysVL-3" edge="1">
          <mxGeometry width="50" height="50" relative="1" as="geometry">
            <mxPoint x="170" y="500" as="sourcePoint" />
            <mxPoint x="140" y="490" as="targetPoint" />
          </mxGeometry>
        </mxCell>
        <mxCell id="rRJigw9USVJfbrqrz50L-15" value="" style="endArrow=open;html=1;rounded=0;exitX=1;exitY=0.5;exitDx=0;exitDy=0;entryX=0;entryY=0.5;entryDx=0;entryDy=0;endFill=0;" parent="1" source="rRJigw9USVJfbrqrz50L-10" target="pMTD0tAEHfAGlln0ysVL-2" edge="1">
          <mxGeometry width="50" height="50" relative="1" as="geometry">
            <mxPoint x="130" y="500" as="sourcePoint" />
            <mxPoint x="140" y="420" as="targetPoint" />
          </mxGeometry>
        </mxCell>
        <mxCell id="rRJigw9USVJfbrqrz50L-16" value="" style="endArrow=open;html=1;rounded=1;exitX=0.5;exitY=1;exitDx=0;exitDy=0;entryX=1;entryY=0.5;entryDx=0;entryDy=0;endFill=0;curved=0;" parent="1" source="rRJigw9USVJfbrqrz50L-2" target="rRJigw9USVJfbrqrz50L-9" edge="1">
          <mxGeometry width="50" height="50" relative="1" as="geometry">
            <mxPoint x="130" y="430" as="sourcePoint" />
            <mxPoint x="150" y="430" as="targetPoint" />
            <Array as="points">
              <mxPoint x="260" y="575" />
            </Array>
          </mxGeometry>
        </mxCell>
        <mxCell id="rRJigw9USVJfbrqrz50L-17" value="Закрыть" style="edgeLabel;html=1;align=center;verticalAlign=middle;resizable=0;points=[];" parent="rRJigw9USVJfbrqrz50L-16" vertex="1" connectable="0">
          <mxGeometry x="-0.4116" y="1" relative="1" as="geometry">
            <mxPoint x="-23" y="9" as="offset" />
          </mxGeometry>
        </mxCell>
        <mxCell id="rRJigw9USVJfbrqrz50L-20" value="Статусы задач" style="html=1;align=center;verticalAlign=top;rounded=1;absoluteArcSize=1;arcSize=10;dashed=0;whiteSpace=wrap;" parent="1" vertex="1">
          <mxGeometry x="400" y="580" width="140" height="40" as="geometry" />
        </mxCell>
        <mxCell id="rRJigw9USVJfbrqrz50L-21" value="" style="endArrow=open;html=1;rounded=1;exitX=0.75;exitY=1;exitDx=0;exitDy=0;entryX=0;entryY=0.5;entryDx=0;entryDy=0;endFill=0;curved=0;" parent="1" source="rRJigw9USVJfbrqrz50L-2" target="rRJigw9USVJfbrqrz50L-20" edge="1">
          <mxGeometry width="50" height="50" relative="1" as="geometry">
            <mxPoint x="170" y="500" as="sourcePoint" />
            <mxPoint x="200" y="500" as="targetPoint" />
            <Array as="points">
              <mxPoint x="315" y="600" />
            </Array>
          </mxGeometry>
        </mxCell>
        <mxCell id="rRJigw9USVJfbrqrz50L-22" value="Изменить&lt;br&gt;статусы задач" style="edgeLabel;html=1;align=center;verticalAlign=middle;resizable=0;points=[];" parent="rRJigw9USVJfbrqrz50L-21" vertex="1" connectable="0">
          <mxGeometry x="-0.1236" relative="1" as="geometry">
            <mxPoint x="13" y="14" as="offset" />
          </mxGeometry>
        </mxCell>
        <mxCell id="rRJigw9USVJfbrqrz50L-24" value="" style="endArrow=open;html=1;rounded=1;exitX=0.25;exitY=0;exitDx=0;exitDy=0;entryX=1;entryY=1;entryDx=0;entryDy=0;endFill=0;curved=0;" parent="1" source="rRJigw9USVJfbrqrz50L-20" target="pMTD0tAEHfAGlln0ysVL-1" edge="1">
          <mxGeometry width="50" height="50" relative="1" as="geometry">
            <mxPoint x="270" y="550" as="sourcePoint" />
            <mxPoint x="130" y="585" as="targetPoint" />
            <Array as="points">
              <mxPoint x="435" y="477" />
            </Array>
          </mxGeometry>
        </mxCell>
        <mxCell id="rRJigw9USVJfbrqrz50L-25" value="Закрыть" style="edgeLabel;html=1;align=center;verticalAlign=middle;resizable=0;points=[];" parent="rRJigw9USVJfbrqrz50L-24" vertex="1" connectable="0">
          <mxGeometry x="-0.4116" y="1" relative="1" as="geometry">
            <mxPoint x="26" y="29" as="offset" />
          </mxGeometry>
        </mxCell>
        <mxCell id="rRJigw9USVJfbrqrz50L-26" value="Участники проекта" style="html=1;align=center;verticalAlign=top;rounded=1;absoluteArcSize=1;arcSize=10;dashed=0;whiteSpace=wrap;" parent="1" vertex="1">
          <mxGeometry x="490" y="385" width="140" height="40" as="geometry" />
        </mxCell>
        <mxCell id="rRJigw9USVJfbrqrz50L-27" value="" style="endArrow=open;html=1;rounded=0;exitX=1;exitY=0.25;exitDx=0;exitDy=0;entryX=0;entryY=0.5;entryDx=0;entryDy=0;endFill=0;" parent="1" source="rRJigw9USVJfbrqrz50L-2" target="rRJigw9USVJfbrqrz50L-26" edge="1">
          <mxGeometry width="50" height="50" relative="1" as="geometry">
            <mxPoint x="170" y="430" as="sourcePoint" />
            <mxPoint x="200" y="430" as="targetPoint" />
          </mxGeometry>
        </mxCell>
        <mxCell id="rRJigw9USVJfbrqrz50L-28" value="Посмотреть&lt;br&gt;участников проекта" style="edgeLabel;html=1;align=center;verticalAlign=middle;resizable=0;points=[];" parent="rRJigw9USVJfbrqrz50L-27" vertex="1" connectable="0">
          <mxGeometry x="-0.1271" relative="1" as="geometry">
            <mxPoint x="8" y="-20" as="offset" />
          </mxGeometry>
        </mxCell>
        <mxCell id="rRJigw9USVJfbrqrz50L-29" value="" style="endArrow=open;html=1;rounded=1;exitX=0.25;exitY=1;exitDx=0;exitDy=0;entryX=1;entryY=0;entryDx=0;entryDy=0;endFill=0;curved=0;" parent="1" source="rRJigw9USVJfbrqrz50L-26" target="pMTD0tAEHfAGlln0ysVL-1" edge="1">
          <mxGeometry width="50" height="50" relative="1" as="geometry">
            <mxPoint x="445" y="590" as="sourcePoint" />
            <mxPoint x="380" y="505" as="targetPoint" />
            <Array as="points">
              <mxPoint x="525" y="463" />
            </Array>
          </mxGeometry>
        </mxCell>
        <mxCell id="rRJigw9USVJfbrqrz50L-30" value="Закрыть" style="edgeLabel;html=1;align=center;verticalAlign=middle;resizable=0;points=[];" parent="rRJigw9USVJfbrqrz50L-29" vertex="1" connectable="0">
          <mxGeometry x="-0.4116" y="1" relative="1" as="geometry">
            <mxPoint x="13" y="9" as="offset" />
          </mxGeometry>
        </mxCell>
        <mxCell id="rRJigw9USVJfbrqrz50L-31" value="Добавление участников" style="html=1;align=center;verticalAlign=top;rounded=1;absoluteArcSize=1;arcSize=10;dashed=0;whiteSpace=wrap;" parent="1" vertex="1">
          <mxGeometry x="620" y="465" width="140" height="40" as="geometry" />
        </mxCell>
        <mxCell id="rRJigw9USVJfbrqrz50L-32" value="" style="endArrow=open;html=1;rounded=1;exitX=1;exitY=0.5;exitDx=0;exitDy=0;entryX=0.5;entryY=0;entryDx=0;entryDy=0;endFill=0;curved=0;" parent="1" source="rRJigw9USVJfbrqrz50L-26" target="rRJigw9USVJfbrqrz50L-31" edge="1">
          <mxGeometry width="50" height="50" relative="1" as="geometry">
            <mxPoint x="535" y="435" as="sourcePoint" />
            <mxPoint x="380" y="460" as="targetPoint" />
            <Array as="points">
              <mxPoint x="690" y="405" />
            </Array>
          </mxGeometry>
        </mxCell>
        <mxCell id="rRJigw9USVJfbrqrz50L-33" value="Добавить&lt;br&gt;участников проекта" style="edgeLabel;html=1;align=center;verticalAlign=middle;resizable=0;points=[];" parent="rRJigw9USVJfbrqrz50L-32" vertex="1" connectable="0">
          <mxGeometry x="-0.4116" y="1" relative="1" as="geometry">
            <mxPoint x="25" y="-14" as="offset" />
          </mxGeometry>
        </mxCell>
        <mxCell id="rRJigw9USVJfbrqrz50L-34" value="" style="endArrow=open;html=1;rounded=1;exitX=0;exitY=0.5;exitDx=0;exitDy=0;entryX=0.75;entryY=1;entryDx=0;entryDy=0;endFill=0;curved=0;" parent="1" source="rRJigw9USVJfbrqrz50L-31" target="rRJigw9USVJfbrqrz50L-26" edge="1">
          <mxGeometry width="50" height="50" relative="1" as="geometry">
            <mxPoint x="170" y="430" as="sourcePoint" />
            <mxPoint x="200" y="430" as="targetPoint" />
            <Array as="points">
              <mxPoint x="595" y="485" />
            </Array>
          </mxGeometry>
        </mxCell>
        <mxCell id="pMTD0tAEHfAGlln0ysVL-1" value="H" style="ellipse;html=1;" vertex="1" parent="1">
          <mxGeometry x="360" y="460" width="20" height="20" as="geometry" />
        </mxCell>
        <mxCell id="pMTD0tAEHfAGlln0ysVL-2" value="" style="ellipse;" vertex="1" parent="1">
          <mxGeometry x="140" y="410" width="20" height="20" as="geometry" />
        </mxCell>
        <mxCell id="pMTD0tAEHfAGlln0ysVL-3" value="" style="ellipse;" vertex="1" parent="1">
          <mxGeometry x="140" y="480" width="20" height="20" as="geometry" />
        </mxCell>
      </root>
    </mxGraphModel>
  </diagram>
</mxfile>
